<svg width="84" height="125" viewBox="0 0 84 125" fill="none" xmlns="http://www.w3.org/2000/svg">
<path d="M0.519043 104.241C0.519043 98.7351 2.69159 93.4551 6.55875 89.5622C10.4259 85.6692 15.6709 83.4822 21.1399 83.4822H41.7608V104.241C41.7608 109.746 39.5882 115.026 35.7211 118.919C31.8539 122.812 26.6089 124.999 21.1399 124.999C15.6709 124.999 10.4259 122.812 6.55875 118.919C2.69159 115.026 0.519043 109.746 0.519043 104.241H0.519043Z" fill="#0ACF83"/>
<path d="M41.76 62.7243C41.76 57.2188 43.9326 51.9389 47.7997 48.0459C51.6669 44.153 56.9119 41.9659 62.3809 41.9659C67.8499 41.9659 73.0949 44.153 76.962 48.0459C80.8292 51.9389 83.0017 57.2188 83.0017 62.7243C83.0017 68.2297 80.8292 73.5097 76.962 77.4026C73.0949 81.2956 67.8499 83.4826 62.3809 83.4826C56.9119 83.4826 51.6669 81.2956 47.7997 77.4026C43.9326 73.5097 41.76 68.2297 41.76 62.7243V62.7243Z" fill="#1ABCFE"/>
<path d="M0.519043 62.7234C0.519043 68.2289 2.69159 73.5088 6.55875 77.4018C10.4259 81.2947 15.6709 83.4818 21.1399 83.4818H41.7608V41.9651H21.1399C15.6709 41.9651 10.4259 44.1521 6.55875 48.0451C2.69159 51.938 0.519043 57.218 0.519043 62.7234H0.519043Z" fill="#A259FF"/>
<path d="M41.76 0.449951V41.9666H62.3809C67.8499 41.9666 73.0949 39.7796 76.962 35.8866C80.8292 31.9937 83.0017 26.7137 83.0017 21.2083C83.0017 15.7028 80.8292 10.4229 76.962 6.52993C73.0949 2.63698 67.8499 0.449951 62.3809 0.449951L41.76 0.449951Z" fill="#FF7262"/>
<path d="M0.516602 21.2083C0.516602 26.7137 2.68915 31.9937 6.55631 35.8866C10.4235 39.7796 15.6685 41.9666 21.1375 41.9666H41.7583V0.449951L21.1375 0.449951C15.6685 0.449951 10.4235 2.63698 6.55631 6.52993C2.68915 10.4229 0.516602 15.7028 0.516602 21.2083H0.516602Z" fill="#F24E1E"/>
</svg>
