<svg width="108" height="16" viewBox="0 0 108 16" fill="none" xmlns="http://www.w3.org/2000/svg">
<path d="M5.27029 8.03241L102.278 8.17033" stroke="#CACACA" stroke-width="0.836813" stroke-linecap="square" stroke-dasharray="1.67 4.18"/>
<path d="M51.116 15.6044H52.7688L56.9008 9.24466L61.446 9.24466C62.1319 9.24466 62.6855 8.71204 62.6855 8.0522C62.6855 7.39237 62.1319 6.85975 61.446 6.85975L56.9008 6.85975L52.7688 0.5L51.116 0.5L53.182 6.85978L48.6369 6.85978L47.3973 5.26983H46.1577L46.9841 8.05224L46.1577 10.8346H47.3973L48.6369 9.24466H53.182L51.116 15.6044Z" fill="#1262AE"/>
<circle cx="5.3667" cy="8" r="3.66319" fill="white" stroke="#1262AE" stroke-width="1.67363"/>
<path d="M107.139 8.68406C107.139 10.5024 105.598 12.0313 103.627 12.0313C101.656 12.0313 100.114 10.5024 100.114 8.68406C100.114 6.8657 101.656 5.33681 103.627 5.33681C105.598 5.33681 107.139 6.8657 107.139 8.68406Z" fill="white" stroke="#1262AE" stroke-width="1.67363"/>
</svg>
