<svg width="14" height="14" viewBox="0 0 14 14" fill="none" xmlns="http://www.w3.org/2000/svg">
<path d="M4.34591 8.05001L6.09591 10.15L8.54591 7.00001L11.6959 11.2H1.89591L4.34591 8.05001ZM13.0959 11.9V2.10001C13.0959 1.32301 12.4659 0.700012 11.6959 0.700012H1.89591C1.52461 0.700012 1.16851 0.847512 0.905961 1.11006C0.64341 1.37261 0.495911 1.72871 0.495911 2.10001V11.9C0.495911 12.2713 0.64341 12.6274 0.905961 12.89C1.16851 13.1525 1.52461 13.3 1.89591 13.3H11.6959C12.0672 13.3 12.4233 13.1525 12.6859 12.89C12.9484 12.6274 13.0959 12.2713 13.0959 11.9Z" fill="#787885"/>
</svg>
