<svg width="28" height="28" viewBox="0 0 28 28" fill="none" xmlns="http://www.w3.org/2000/svg">
<g clip-path="url(#clip0_1_2455)">
<path d="M22 13H9.83L15.42 7.41L14 6L6 14L14 22L15.41 20.59L9.83 15H22V13Z" fill="#2979FF"/>
</g>
<path d="M20 20C20.5304 20 21.0391 20.2107 21.4142 20.5858C21.7893 20.9609 22 21.4696 22 22C22 22.5304 21.7893 23.0391 21.4142 23.4142C21.0391 23.7893 20.5304 24 20 24C18.89 24 18 23.1 18 22C18 20.89 18.89 20 20 20ZM4 4H7.27L8.21 6H23C23.2652 6 23.5196 6.10536 23.7071 6.29289C23.8946 6.48043 24 6.73478 24 7C24 7.17 23.95 7.34 23.88 7.5L20.3 13.97C19.96 14.58 19.3 15 18.55 15H11.1L10.2 16.63L10.17 16.75C10.17 16.8163 10.1963 16.8799 10.2432 16.9268C10.2901 16.9737 10.3537 17 10.42 17H22V19H10C8.89 19 8 18.1 8 17C8 16.65 8.09 16.32 8.24 16.04L9.6 13.59L6 6H4V4ZM10 20C10.5304 20 11.0391 20.2107 11.4142 20.5858C11.7893 20.9609 12 21.4696 12 22C12 22.5304 11.7893 23.0391 11.4142 23.4142C11.0391 23.7893 10.5304 24 10 24C8.89 24 8 23.1 8 22C8 20.89 8.89 20 10 20ZM19 13L21.78 8H9.14L11.5 13H19Z" fill="#2979FF"/>
<defs>
<clipPath id="clip0_1_2455">
<rect width="28" height="28" fill="white"/>
</clipPath>
</defs>
</svg>
