<svg width="174" height="34" viewBox="0 0 174 34" fill="none" xmlns="http://www.w3.org/2000/svg">
<g clip-path="url(#clip0_1003_4174)">
<path d="M129.851 9.04682C131.214 9.04682 132.452 9.22021 133.564 9.567C134.676 9.91378 135.615 10.3622 136.38 10.9123C136.858 11.2471 137.235 11.6178 137.51 12.0244C137.785 12.431 137.923 12.9571 137.923 13.6029V26.1589L137.917 26.5003C137.877 27.624 137.64 28.6044 137.205 29.4414C136.727 30.3622 136.075 31.1275 135.25 31.7374C134.425 32.3473 133.456 32.7957 132.344 33.0827C131.232 33.3697 130.042 33.5132 128.775 33.5132C126.598 33.5132 124.888 33.2202 123.645 32.6343C122.401 32.0483 121.779 31.0976 121.779 29.7822C121.779 29.2322 121.893 28.7479 122.12 28.3293C122.347 27.9108 122.604 27.5939 122.891 27.3787C123.585 27.7613 124.368 28.0842 125.241 28.3473C126.114 28.6103 127.017 28.7419 127.95 28.7419C129.241 28.7419 130.269 28.5266 131.035 28.0961C131.8 27.6657 132.183 26.9721 132.183 26.0154V25.4414L131.91 25.5535C130.983 25.9093 129.878 26.0872 128.595 26.0872C127.519 26.0872 126.497 25.9257 125.528 25.6029C124.559 25.28 123.71 24.7778 122.981 24.0961C122.251 23.4145 121.665 22.5356 121.223 21.4594C120.781 20.3831 120.559 19.1036 120.559 17.6208C120.559 16.1619 120.793 14.8943 121.259 13.8181C121.725 12.7419 122.371 11.851 123.196 11.1455C124.021 10.4399 125.002 9.91378 126.138 9.567C127.274 9.22021 128.512 9.04682 129.851 9.04682ZM33.2869 9.60374C35.4197 9.60374 37.165 10.0823 38.5227 11.0395C39.8804 11.9966 40.6841 13.6873 40.9338 16.1114H36.3769L36.3333 15.8432C36.2301 15.3145 36.0313 14.8317 35.737 14.3947C35.2377 13.7081 34.4626 13.3648 33.4118 13.3648C31.9136 13.3648 30.8888 14.1086 30.3374 15.5964C30.0461 16.3871 29.9004 17.4379 29.9004 18.7488C29.9004 19.9973 30.0461 21.0012 30.3374 21.7607C30.868 23.1757 31.8668 23.8831 33.3337 23.8831C34.3741 23.8831 35.1128 23.6022 35.5498 23.0404C35.9867 22.4786 36.252 21.7503 36.3457 20.8556H40.887L40.8561 21.1664C40.7054 22.4045 40.2267 23.5806 39.42 24.6946C38.0259 26.6402 35.9607 27.6129 33.2245 27.6129C30.4883 27.6129 28.4751 26.8014 27.185 25.1784C25.8949 23.5554 25.2499 21.4486 25.2499 18.858C25.2499 15.9345 25.9626 13.6613 27.3879 12.0383C28.8132 10.4152 30.7796 9.60374 33.2869 9.60374ZM74.6185 9.55692C76.0334 9.55692 77.3079 9.82222 78.4419 10.3528C79.5759 10.8834 80.5123 11.7209 81.251 12.8654C81.9168 13.8745 82.3486 15.045 82.5462 16.3767C82.6607 17.157 82.7075 18.2806 82.6867 19.7476H71.0447L71.0606 20.0434C71.1718 21.5928 71.7023 22.6907 72.6521 23.3369C73.2659 23.7635 74.0046 23.9768 74.8681 23.9768C75.7837 23.9768 76.5276 23.7167 77.0998 23.1965C77.4119 22.9156 77.6876 22.5254 77.9269 22.026H82.4682L82.4345 22.2592C82.2705 23.193 81.7563 24.14 80.892 25.1004C79.4355 26.7546 77.3963 27.5817 74.7745 27.5817C72.6105 27.5817 70.7014 26.8847 69.0471 25.4905C67.3929 24.0964 66.5658 21.8284 66.5658 18.6864C66.5658 15.7421 67.3123 13.4844 68.8053 11.9134C70.2982 10.3424 72.236 9.55692 74.6185 9.55692ZM105.848 3.30691C106.374 3.30691 106.846 3.34278 107.265 3.41453C107.683 3.48628 108.036 3.62978 108.323 3.84502C108.61 4.06027 108.831 4.35324 108.987 4.72395C109.142 5.09465 109.22 5.57895 109.22 6.17686V26.984L109.099 27.0056C108.843 27.051 108.495 27.1096 108.054 27.1813C107.54 27.2651 107.019 27.3069 106.493 27.3069C105.967 27.3069 105.495 27.271 105.076 27.1993C104.658 27.1275 104.305 26.984 104.018 26.7688C103.731 26.5535 103.51 26.2606 103.354 25.8899C103.199 25.5192 103.121 25.0349 103.121 24.437V3.62978L103.242 3.60818C103.498 3.56279 103.846 3.50422 104.287 3.43247C104.801 3.34876 105.321 3.30691 105.848 3.30691ZM115.015 9.51318C115.541 9.51318 116.014 9.54906 116.432 9.62081C116.851 9.69256 117.203 9.83605 117.49 10.0513C117.777 10.2665 117.999 10.5595 118.154 10.9302C118.31 11.3009 118.387 11.7852 118.387 12.3831V26.984L118.267 27.0056C118.011 27.051 117.662 27.1096 117.221 27.1813C116.707 27.2651 116.187 27.3069 115.661 27.3069C115.135 27.3069 114.662 27.271 114.244 27.1993C113.825 27.1275 113.473 26.984 113.186 26.7688C112.899 26.5535 112.677 26.2606 112.522 25.8899C112.366 25.5192 112.289 25.0349 112.289 24.437V9.83605L112.409 9.81446C112.665 9.76906 113.014 9.71049 113.455 9.63874C113.969 9.55504 114.489 9.51318 115.015 9.51318ZM143.574 3.30691C144.101 3.30691 144.573 3.34278 144.991 3.41453C145.41 3.48628 145.763 3.62978 146.05 3.84502C146.337 4.06027 146.558 4.35324 146.713 4.72395C146.869 5.09465 146.947 5.57895 146.947 6.17686V9.69256L147.071 9.64687C147.378 9.53831 147.809 9.41602 148.364 9.28C148.997 9.12454 149.697 9.04682 150.462 9.04682C152.83 9.04682 154.678 9.63874 156.005 10.8226C157.332 12.0065 157.996 13.7703 157.996 16.1141V26.984L157.885 27.0148C157.646 27.0763 157.307 27.1378 156.866 27.1993C156.352 27.271 155.82 27.3069 155.27 27.3069C154.743 27.3069 154.271 27.271 153.852 27.1993C153.434 27.1275 153.081 26.984 152.794 26.7688C152.507 26.5535 152.286 26.2606 152.131 25.8899C151.975 25.5192 151.897 25.0349 151.897 24.437V16.4728L151.893 16.2517C151.858 15.3882 151.614 14.7743 151.162 14.41C150.672 14.0154 150.068 13.8181 149.35 13.8181C148.872 13.8181 148.417 13.8779 147.987 13.9975C147.557 14.1171 147.21 14.2606 146.947 14.428V26.984L146.836 27.0148C146.597 27.0763 146.257 27.1378 145.817 27.1993C145.302 27.271 144.77 27.3069 144.22 27.3069C143.694 27.3069 143.222 27.271 142.803 27.1993C142.385 27.1275 142.032 26.984 141.745 26.7688C141.458 26.5535 141.237 26.2606 141.081 25.8899C140.926 25.5192 140.848 25.0349 140.848 24.437V3.62978L140.968 3.60818C141.225 3.56279 141.573 3.50422 142.014 3.43247C142.528 3.34876 143.048 3.30691 143.574 3.30691ZM100.626 5.28L100.708 5.41901C100.843 5.66316 100.965 5.96959 101.075 6.3383C101.206 6.78075 101.272 7.24114 101.272 7.71946C101.272 8.6522 101.075 9.31587 100.68 9.71049C100.285 10.1051 99.7533 10.3024 99.0836 10.3024H91.55V14.3562H99.4065L99.4997 14.4947C99.6508 14.7372 99.7812 15.0378 99.8908 15.3966C100.022 15.8271 100.088 16.2815 100.088 16.7598C100.088 17.6686 99.8908 18.3204 99.4962 18.715C99.1016 19.1096 98.5694 19.3069 97.8998 19.3069H91.6217V26.8764L91.4998 26.9072C91.2377 26.9687 90.8658 27.0302 90.3841 27.0917C89.822 27.1634 89.266 27.1993 88.7159 27.1993C88.1658 27.1993 87.6815 27.1574 87.263 27.0737C86.8445 26.99 86.4917 26.8405 86.2047 26.6253C85.9177 26.41 85.7025 26.1111 85.559 25.7284C85.4155 25.3458 85.3437 24.8435 85.3437 24.2217V8.61632L85.3499 8.36371C85.3956 7.45389 85.6925 6.72494 86.2406 6.17686C86.8385 5.57895 87.6516 5.28 88.68 5.28H100.626ZM16.3082 4.04804V8.08996H4.7754V13.3804H14.8724V17.3755H4.7754V27.0199H0V4.04804H16.3082ZM22.8234 10.0095V27.0199H18.3133V10.0095H22.8234ZM47.4022 4.09486V16.4859L52.9423 10.0875H58.4512L52.5054 16.5952L58.6853 27.0199H53.3169L49.2437 19.7476L47.4022 21.6671V27.0199H43.0326V4.09486H47.4022ZM64.4827 4.01683V27.0199H60.035V4.01683H64.4827ZM158.328 5.13247C159.074 4.90828 160.346 4.85841 161.836 5.51712C163.339 6.1821 164.277 7.32269 164.649 8.9389L172.721 9.62492C172.821 9.63072 172.92 9.65097 173.019 9.68568C173.167 9.73773 173.247 9.81097 173.314 9.8683C173.478 10.0089 173.531 10.1173 173.609 10.3114C173.748 10.6565 173.706 11.0627 173.525 11.3412C173.233 11.7902 172.777 12.0808 172.156 12.2128L165.639 13.5979L166.79 19.0095C166.922 19.6307 167.213 20.0308 167.663 20.2098C168.113 20.3889 168.696 20.4022 169.413 20.2498C169.772 20.1737 170.135 20.0651 170.505 19.9241C170.875 19.7831 171.193 19.6344 171.459 19.4779C171.73 19.695 171.977 19.9483 172.201 20.2378C172.425 20.5274 172.585 20.8991 172.682 21.3531C173.038 23.0312 170.397 24.6166 168.666 24.9278C167.062 25.2159 164.602 25.4553 163.195 21.7706C161.789 18.0858 159.58 11.9094 157.894 6.76219C157.748 6.318 157.658 5.88172 157.814 5.52172C157.899 5.32713 157.96 5.24314 158.328 5.13247ZM130.138 13.8181C128.966 13.8181 128.087 14.147 127.501 14.8047C126.915 15.4624 126.622 16.4011 126.622 17.6208C126.622 19.008 126.915 20.0065 127.501 20.6163C128.087 21.2262 128.834 21.5311 129.743 21.5311C130.724 21.5311 131.501 21.3039 132.075 20.8495V14.2486L131.965 14.1912C131.806 14.1147 131.598 14.0381 131.34 13.9616C131.017 13.8659 130.616 13.8181 130.138 13.8181ZM74.6185 13.2243C73.5885 13.2243 72.79 13.5468 72.2229 14.1919C71.6559 14.8369 71.2996 15.7108 71.1539 16.8137H78.0674C77.9945 15.638 77.6382 14.7459 76.9984 14.1372C76.3585 13.5286 75.5652 13.2243 74.6185 13.2243ZM22.8234 3.87637V7.98072H18.3133V3.87637H22.8234ZM115.338 1.51318C116.342 1.51318 117.15 1.8241 117.76 2.44592C118.369 3.06774 118.674 3.83306 118.674 4.74188C118.674 5.6507 118.369 6.41602 117.76 7.03785C117.15 7.65967 116.342 7.97058 115.338 7.97058C114.334 7.97058 113.526 7.65967 112.916 7.03785C112.307 6.41602 112.002 5.6507 112.002 4.74188C112.002 3.83306 112.307 3.06774 112.916 2.44592C113.526 1.8241 114.334 1.51318 115.338 1.51318Z" fill="white"/>
</g>
<defs>
<clipPath id="clip0_1003_4174">
<rect width="174" height="33" fill="white" transform="translate(0 0.987793)"/>
</clipPath>
</defs>
</svg>
