<svg width="120" height="51" viewBox="0 0 120 51" fill="none" xmlns="http://www.w3.org/2000/svg">
<path fill-rule="evenodd" clip-rule="evenodd" d="M8.75206 30.6C0.981273 25.7429 0.0099249 20.8857 0.0099249 16.7571C-0.232912 11.9 3.89532 0 21.6224 0C30.8502 0 37.4878 2.91429 39.8352 4.37143V0.485714H119.971V13.1143H106.373V30.6H89.374V13.1143H56.8338V17.9714H74.8037V30.6H8.75206ZM22.3509 12.6286C26.9648 12.6286 31.8216 15.0572 34.4928 17.9715H39.8352V27.6858C38.1353 25.0143 34.1042 21.6629 27.6933 19.9143C26.0483 19.3909 24.4033 19.0332 22.9142 18.7095C19.5674 17.9818 17.0085 17.4254 17.0085 15.5429C17.0085 13.6001 18.077 12.6286 22.3509 12.6286Z" fill="black"/>
<path d="M0 50.8949V38.4417H5.37466C5.98355 38.4417 6.54561 38.5704 7.06083 38.8276C7.57604 39.0732 8.01515 39.4006 8.37815 39.8098C8.75285 40.2074 9.04559 40.6693 9.25636 41.1955C9.46713 41.71 9.57251 42.2303 9.57251 42.7565C9.57251 43.3061 9.47298 43.844 9.27392 44.3702C9.07486 44.8847 8.79383 45.3465 8.43084 45.7558C8.07955 46.1534 7.6463 46.4749 7.13108 46.7205C6.62758 46.9543 6.07137 47.0713 5.46248 47.0713H3.42503V50.8949H0ZM3.42503 44.0895H5.23415C5.44492 44.0895 5.63812 43.996 5.81377 43.8089C6.00112 43.6101 6.09479 43.2593 6.09479 42.7565C6.09479 42.242 5.98941 41.8912 5.77864 41.7041C5.56787 41.517 5.3571 41.4235 5.14632 41.4235H3.42503V44.0895Z" fill="#7C4DFF"/>
<path d="M17.0128 50.8949V38.4417H22.7387C23.3476 38.4417 23.9097 38.5704 24.4249 38.8276C24.9401 39.0732 25.3792 39.4006 25.7422 39.8098C26.1169 40.2074 26.4096 40.6693 26.6204 41.1955C26.8312 41.71 26.9366 42.2303 26.9366 42.7565C26.9366 43.4815 26.7785 44.1597 26.4623 44.7911C26.1462 45.4108 25.7071 45.9195 25.145 46.3171L27.7797 50.8949H23.9155L21.72 47.0713H20.4378V50.8949H17.0128ZM20.4378 44.0895H22.5982C22.809 44.0895 23.0022 43.9726 23.1778 43.7387C23.3652 43.5049 23.4588 43.1775 23.4588 42.7565C23.4588 42.3239 23.3535 41.9964 23.1427 41.7743C22.9319 41.5404 22.7212 41.4235 22.5104 41.4235H20.4378V44.0895Z" fill="#7C4DFF"/>
<path d="M40.4008 51.0002C39.4523 51.0002 38.5917 50.8189 37.8189 50.4564C37.046 50.0939 36.3845 49.6204 35.8341 49.0357C35.2838 48.4394 34.8564 47.7612 34.5519 47.0011C34.2475 46.2411 34.0952 45.4576 34.0952 44.6508C34.0952 43.8323 34.2533 43.043 34.5695 42.2829C34.8856 41.5229 35.3247 40.8564 35.8868 40.2834C36.4606 39.6988 37.1339 39.2369 37.9067 38.8978C38.6912 38.547 39.546 38.3716 40.4711 38.3716C41.4195 38.3716 42.2802 38.5528 43.053 38.9153C43.8258 39.2778 44.4874 39.7572 45.0378 40.3536C45.5881 40.9499 46.0097 41.6281 46.3024 42.3882C46.6068 43.1482 46.7591 43.9258 46.7591 44.7209C46.7591 45.5395 46.601 46.3288 46.2848 47.0888C45.9687 47.8372 45.5296 48.5037 44.9675 49.0883C44.4055 49.6613 43.7322 50.1232 42.9476 50.474C42.1748 50.8248 41.3259 51.0002 40.4008 51.0002ZM37.573 44.6859C37.573 45.1068 37.6315 45.5161 37.7486 45.9136C37.8657 46.2995 38.0413 46.6445 38.2755 46.9485C38.5097 47.2525 38.8025 47.4981 39.1537 47.6852C39.5167 47.8722 39.9441 47.9658 40.4359 47.9658C40.9277 47.9658 41.3551 47.8722 41.7181 47.6852C42.0811 47.4864 42.3739 47.235 42.5963 46.9309C42.8305 46.6152 43.0003 46.2586 43.1057 45.861C43.2228 45.4635 43.2814 45.06 43.2814 44.6508C43.2814 44.2298 43.2228 43.8264 43.1057 43.4406C42.9886 43.043 42.8071 42.698 42.5612 42.4057C42.327 42.1017 42.0284 41.862 41.6654 41.6866C41.3142 41.4995 40.8985 41.4059 40.4184 41.4059C39.9266 41.4059 39.4992 41.4995 39.1362 41.6866C38.7849 41.8737 38.4922 42.1251 38.258 42.4408C38.0238 42.7448 37.8481 43.0956 37.731 43.4932C37.6257 43.879 37.573 44.2766 37.573 44.6859Z" fill="#7C4DFF"/>
<path d="M54.2801 50.8949V38.4417H59.0752C60.1056 38.4417 61.0131 38.6054 61.7976 38.9329C62.5822 39.2603 63.2379 39.7046 63.7648 40.2659C64.2918 40.8271 64.6899 41.4878 64.9592 42.2479C65.2285 42.9962 65.3632 43.7972 65.3632 44.6508C65.3632 45.5979 65.211 46.4574 64.9065 47.2291C64.6138 47.9892 64.1922 48.644 63.6419 49.1936C63.0915 49.7314 62.43 50.1524 61.6571 50.4564C60.8843 50.7488 60.0237 50.8949 59.0752 50.8949H54.2801ZM61.8855 44.6508C61.8855 44.1714 61.8211 43.7329 61.6923 43.3353C61.5635 42.9377 61.3761 42.5986 61.1302 42.318C60.896 42.0374 60.6033 41.8211 60.252 41.669C59.9007 41.5053 59.5084 41.4235 59.0752 41.4235H57.7052V47.9132H59.0752C59.5201 47.9132 59.9183 47.8313 60.2696 47.6676C60.6208 47.5039 60.9136 47.2759 61.1478 46.9836C61.3937 46.6912 61.5752 46.3463 61.6923 45.9487C61.8211 45.5512 61.8855 45.1185 61.8855 44.6508Z" fill="#7C4DFF"/>
<path d="M78.3673 47.9658C78.7655 47.9658 79.105 47.8781 79.3861 47.7027C79.6671 47.5273 79.8954 47.2993 80.0711 47.0186C80.2467 46.7263 80.3755 46.3931 80.4575 46.0189C80.5394 45.6447 80.5804 45.253 80.5804 44.8437V38.4417H84.0055V44.8437C84.0055 45.709 83.8942 46.5217 83.6717 47.2817C83.4493 48.0301 83.1038 48.6791 82.6354 49.2286C82.1671 49.7782 81.5757 50.2109 80.8615 50.5266C80.1589 50.8423 79.3275 51.0002 78.3673 51.0002C77.372 51.0002 76.5172 50.8365 75.803 50.509C75.1004 50.1699 74.5208 49.7198 74.0641 49.1585C73.6074 48.5972 73.2737 47.9482 73.0629 47.2116C72.8522 46.4632 72.7468 45.6739 72.7468 44.8437V38.4417H76.1718V44.8437C76.1718 45.253 76.2128 45.6506 76.2947 46.0364C76.3767 46.4106 76.5055 46.7439 76.6812 47.0362C76.8568 47.3168 77.0793 47.5448 77.3486 47.7202C77.6296 47.8839 77.9692 47.9658 78.3673 47.9658Z" fill="#7C4DFF"/>
<path d="M91.3599 44.5631C91.3599 43.803 91.5005 43.0547 91.7815 42.318C92.0742 41.5813 92.4958 40.9207 93.0461 40.336C93.5965 39.7514 94.2639 39.2778 95.0484 38.9153C95.833 38.5528 96.7288 38.3716 97.7358 38.3716C98.9418 38.3716 99.984 38.623 100.862 39.1258C101.752 39.6169 102.414 40.2717 102.847 41.0902L100.23 42.9494C100.113 42.6454 99.9547 42.394 99.7557 42.1952C99.5683 41.9964 99.3575 41.8386 99.1233 41.7217C98.8892 41.6047 98.6433 41.5229 98.3856 41.4761C98.1397 41.4293 97.8997 41.4059 97.6655 41.4059C97.1737 41.4059 96.7463 41.5053 96.3833 41.7041C96.032 41.8912 95.7393 42.1426 95.5051 42.4583C95.2826 42.7623 95.1128 43.1131 94.9957 43.5107C94.8904 43.8966 94.8377 44.2825 94.8377 44.6683C94.8377 45.101 94.9021 45.5161 95.0309 45.9136C95.1597 46.3112 95.347 46.662 95.5929 46.966C95.8388 47.27 96.1374 47.5156 96.4887 47.7027C96.8517 47.8781 97.2557 47.9658 97.7006 47.9658C97.9348 47.9658 98.1749 47.9424 98.4208 47.8956C98.6667 47.8372 98.9009 47.7495 99.1233 47.6325C99.3575 47.5039 99.5625 47.3461 99.7381 47.159C99.9254 46.9602 100.072 46.7205 100.177 46.4398L102.97 48.1061C102.783 48.5621 102.496 48.9714 102.109 49.3339C101.735 49.6964 101.301 50.0004 100.81 50.2459C100.329 50.4915 99.8083 50.6786 99.2463 50.8072C98.6959 50.9358 98.1573 51.0002 97.6304 51.0002C96.7053 51.0002 95.8564 50.8189 95.0836 50.4564C94.3224 50.0822 93.6609 49.5911 93.0988 48.9831C92.5485 48.375 92.1211 47.6852 91.8166 46.9134C91.5122 46.1417 91.3599 45.3582 91.3599 44.5631Z" fill="#7C4DFF"/>
<path d="M119.971 41.4235H116.388V50.8949H112.963V41.4235H109.363V38.4417H119.971V41.4235Z" fill="#7C4DFF"/>
</svg>
