<svg width="130" height="31" viewBox="0 0 130 31" fill="none" xmlns="http://www.w3.org/2000/svg">
<g clip-path="url(#clip0_1003_4180)">
<path d="M15.0001 1.58789C7.0471 1.58789 0.600098 8.03489 0.600098 15.9879C0.600098 23.9409 7.0471 30.3879 15.0001 30.3879C22.9531 30.3879 29.4001 23.9409 29.4001 15.9879C29.4001 8.03489 22.9531 1.58789 15.0001 1.58789ZM18.4111 11.5389H16.2466C15.9901 11.5389 15.7051 11.8764 15.7051 12.3249V13.8879H18.4126L18.0031 16.1169H15.7051V22.8084H13.1506V16.1169H10.8331V13.8879H13.1506V12.5769C13.1506 10.6959 14.4556 9.16739 16.2466 9.16739H18.4111V11.5389Z" fill="white"/>
</g>
<g clip-path="url(#clip1_1003_4180)">
<path d="M115 1.58789C107.047 1.58789 100.6 8.03489 100.6 15.9879C100.6 23.9409 107.047 30.3879 115 30.3879C122.953 30.3879 129.4 23.9409 129.4 15.9879C129.4 8.03489 122.953 1.58789 115 1.58789ZM120.858 13.3839C120.864 13.5069 120.865 13.6299 120.865 13.7499C120.865 17.4999 118.014 21.8214 112.797 21.8214C111.255 21.824 109.746 21.3812 108.45 20.5464C108.67 20.5734 108.897 20.5839 109.126 20.5839C110.455 20.5839 111.678 20.1324 112.648 19.3704C112.057 19.3588 111.484 19.1629 111.009 18.8102C110.534 18.4574 110.181 17.9653 109.999 17.4024C110.424 17.4832 110.861 17.4662 111.279 17.3529C110.637 17.2231 110.059 16.8753 109.645 16.3684C109.23 15.8615 109.003 15.2268 109.003 14.5719V14.5374C109.386 14.7489 109.824 14.8779 110.289 14.8929C109.687 14.4923 109.261 13.8769 109.098 13.1726C108.935 12.4683 109.047 11.7283 109.411 11.1039C110.124 11.9799 111.012 12.6965 112.019 13.2074C113.026 13.7182 114.129 14.0119 115.257 14.0694C115.113 13.4609 115.175 12.822 115.432 12.2521C115.689 11.6823 116.128 11.2134 116.679 10.9183C117.23 10.6232 117.863 10.5185 118.48 10.6204C119.097 10.7223 119.663 11.0252 120.09 11.4819C120.724 11.3563 121.333 11.1235 121.89 10.7934C121.678 11.4506 121.235 12.0087 120.643 12.3639C121.205 12.2962 121.754 12.145 122.272 11.9154C121.892 12.4852 121.413 12.9825 120.858 13.3839Z" fill="white"/>
</g>
<g clip-path="url(#clip2_1003_4180)">
<path d="M69.5001 15.9879C69.5001 17.1814 69.026 18.326 68.1821 19.1699C67.3382 20.0138 66.1936 20.4879 65.0001 20.4879C63.8066 20.4879 62.662 20.0138 61.8181 19.1699C60.9742 18.326 60.5001 17.1814 60.5001 15.9879C60.5001 15.7314 60.5271 15.4809 60.5736 15.2379H59.0001V21.2334C59.0001 21.6504 59.3376 21.9879 59.7546 21.9879H70.2471C70.4469 21.9875 70.6385 21.9078 70.7796 21.7664C70.9208 21.6249 71.0001 21.4332 71.0001 21.2334V15.2379H69.4266C69.4731 15.4809 69.5001 15.7314 69.5001 15.9879ZM65.0001 18.9879C65.3942 18.9878 65.7844 18.9101 66.1484 18.7592C66.5124 18.6083 66.8432 18.3872 67.1217 18.1085C67.4003 17.8297 67.6213 17.4989 67.772 17.1348C67.9227 16.7707 68.0002 16.3805 68.0001 15.9864C68 15.5923 67.9223 15.2021 67.7714 14.8381C67.6205 14.4741 67.3994 14.1433 67.1207 13.8648C66.842 13.5862 66.5111 13.3652 66.147 13.2145C65.7829 13.0638 65.3927 12.9863 64.9986 12.9864C64.2028 12.9866 63.4396 13.3029 62.877 13.8658C62.3144 14.4287 61.9984 15.192 61.9986 15.9879C61.9988 16.7837 62.3151 17.5469 62.878 18.1095C63.4409 18.6721 64.2043 18.9881 65.0001 18.9879ZM68.6001 12.8379H70.3986C70.5181 12.8379 70.6327 12.7905 70.7173 12.7062C70.802 12.6218 70.8497 12.5074 70.8501 12.3879V10.5894C70.8501 10.4696 70.8025 10.3548 70.7179 10.2701C70.6332 10.1855 70.5183 10.1379 70.3986 10.1379H68.6001C68.4804 10.1379 68.3655 10.1855 68.2808 10.2701C68.1962 10.3548 68.1486 10.4696 68.1486 10.5894V12.3879C68.1501 12.6354 68.3526 12.8379 68.6001 12.8379ZM65.0001 1.58789C61.181 1.58789 57.5183 3.10503 54.8178 5.80555C52.1172 8.50608 50.6001 12.1688 50.6001 15.9879C50.6001 19.807 52.1172 23.4697 54.8178 26.1702C57.5183 28.8708 61.181 30.3879 65.0001 30.3879C66.8911 30.3879 68.7637 30.0154 70.5107 29.2918C72.2578 28.5681 73.8453 27.5074 75.1824 26.1702C76.5196 24.8331 77.5803 23.2456 78.304 21.4985C79.0276 19.7514 79.4001 17.8789 79.4001 15.9879C79.4001 14.0969 79.0276 12.2243 78.304 10.4772C77.5803 8.73016 76.5196 7.14272 75.1824 5.80555C73.8453 4.46839 72.2578 3.40769 70.5107 2.68403C68.7637 1.96036 66.8911 1.58789 65.0001 1.58789ZM72.5001 21.8214C72.5001 22.7379 71.7501 23.4879 70.8336 23.4879H59.1666C58.2501 23.4879 57.5001 22.7379 57.5001 21.8214V10.1544C57.5001 9.23789 58.2501 8.48789 59.1666 8.48789H70.8336C71.7501 8.48789 72.5001 9.23789 72.5001 10.1544V21.8214Z" fill="white"/>
</g>
<defs>
<clipPath id="clip0_1003_4180">
<rect width="30" height="30" fill="white" transform="translate(0 0.987793)"/>
</clipPath>
<clipPath id="clip1_1003_4180">
<rect width="30" height="30" fill="white" transform="translate(100 0.987793)"/>
</clipPath>
<clipPath id="clip2_1003_4180">
<rect width="30" height="30" fill="white" transform="translate(50 0.987793)"/>
</clipPath>
</defs>
</svg>
