<svg width="17" height="19" viewBox="0 0 17 19" fill="none" xmlns="http://www.w3.org/2000/svg">
<path d="M16.1363 7.04056L11.1372 6.25634L8.90251 1.3661C8.84148 1.23221 8.74106 1.12382 8.61702 1.05793C8.30593 0.892164 7.9279 1.03031 7.77236 1.3661L5.53764 6.25634L0.53857 7.04056C0.400746 7.06181 0.274735 7.13195 0.178258 7.23821C0.0616232 7.36761 -0.002648 7.5417 -0.000432864 7.72222C0.00178227 7.90274 0.0703025 8.07493 0.190072 8.20095L3.80697 12.0073L2.95246 17.3821C2.93242 17.5071 2.94524 17.6357 2.98946 17.7533C3.03368 17.8709 3.10753 17.9727 3.20264 18.0473C3.29776 18.1218 3.41032 18.1661 3.52758 18.1752C3.64483 18.1842 3.76208 18.1576 3.86603 18.0983L8.33744 15.5608L12.8088 18.0983C12.9309 18.1685 13.0727 18.1918 13.2085 18.1663C13.5511 18.1026 13.7815 17.7519 13.7224 17.3821L12.8679 12.0073L16.4848 8.20095C16.5832 8.09682 16.6482 7.9608 16.6679 7.81203C16.7211 7.44011 16.4809 7.09582 16.1363 7.04056Z" fill="#FDBF00"/>
</svg>
