<svg width="17" height="19" viewBox="0 0 17 19" fill="none" xmlns="http://www.w3.org/2000/svg">
<path d="M16.1058 7.04056L11.1163 6.25634L8.88591 1.3661C8.82499 1.23221 8.72477 1.12382 8.60097 1.05793C8.29048 0.892164 7.91317 1.03031 7.75793 1.3661L5.5275 6.25634L0.538023 7.04056C0.400464 7.06181 0.274695 7.13195 0.178403 7.23821C0.0619923 7.36761 -0.00215557 7.5417 5.53105e-05 7.72222C0.00226619 7.90274 0.0706549 8.07493 0.190194 8.20095L3.80015 12.0073L2.94728 17.3821C2.92728 17.5071 2.94007 17.6357 2.98421 17.7533C3.02834 17.8709 3.10205 17.9727 3.19698 18.0473C3.29191 18.1218 3.40426 18.1661 3.52129 18.1752C3.63832 18.1842 3.75535 18.1576 3.8591 18.0983L8.32192 15.5608L12.7847 18.0983C12.9066 18.1685 13.0481 18.1918 13.1837 18.1663C13.5256 18.1026 13.7555 17.7519 13.6966 17.3821L12.8437 12.0073L16.4536 8.20095C16.5519 8.09682 16.6167 7.9608 16.6364 7.81203C16.6895 7.44011 16.4497 7.09582 16.1058 7.04056Z" fill="#FDBF00"/>
</svg>
