<svg width="25" height="26" viewBox="0 0 25 26" fill="none" xmlns="http://www.w3.org/2000/svg">
<g clip-path="url(#clip0_1003_4083)">
<path d="M12.5 23.7912C9.76732 23.7912 7.1466 22.7057 5.21434 20.7734C3.28207 18.8411 2.19653 16.2204 2.19653 13.4878C2.19653 10.7551 3.28207 8.1344 5.21434 6.20213C7.1466 4.26986 9.76732 3.18432 12.5 3.18432C15.2326 3.18432 17.8533 4.26986 19.7856 6.20213C21.7179 8.1344 22.8034 10.7551 22.8034 13.4878C22.8034 16.2204 21.7179 18.8411 19.7856 20.7734C17.8533 22.7057 15.2326 23.7912 12.5 23.7912ZM12.5 25.2631C15.623 25.2631 18.6181 24.0225 20.8264 21.8142C23.0347 19.6059 24.2753 16.6108 24.2753 13.4878C24.2753 10.3647 23.0347 7.36963 20.8264 5.16132C18.6181 2.95302 15.623 1.7124 12.5 1.7124C9.37695 1.7124 6.38184 2.95302 4.17353 5.16132C1.96522 7.36963 0.724609 10.3647 0.724609 13.4878C0.724609 16.6108 1.96522 19.6059 4.17353 21.8142C6.38184 24.0225 9.37695 25.2631 12.5 25.2631Z" fill="#1262AF"/>
<path d="M9.87124 8.48774C10.0101 8.41624 10.166 8.38443 10.3218 8.39581C10.4775 8.4072 10.6271 8.46133 10.7541 8.55226L16.6965 12.7968C16.8065 12.8753 16.8962 12.979 16.9581 13.0992C17.02 13.2194 17.0523 13.3526 17.0523 13.4878C17.0523 13.623 17.02 13.7562 16.9581 13.8764C16.8962 13.9966 16.8065 14.1003 16.6965 14.1788L10.7541 18.4234C10.6272 18.5142 10.4776 18.5683 10.3219 18.5797C10.1663 18.5911 10.0105 18.5593 9.87164 18.4879C9.73284 18.4165 9.61641 18.3082 9.53517 18.1749C9.45392 18.0416 9.41101 17.8885 9.41113 17.7324V9.24327C9.41097 9.08721 9.45383 8.93413 9.535 8.80084C9.61617 8.66755 9.73251 8.55922 9.87124 8.48774Z" fill="#1262AF"/>
</g>
<defs>
<clipPath id="clip0_1003_4083">
<rect width="25" height="25" fill="white" transform="translate(0 0.987793)"/>
</clipPath>
</defs>
</svg>
